<?xml version="1.0" encoding="UTF-8"?>
<svg id="Layer_1" xmlns="http://www.w3.org/2000/svg" version="1.1" viewBox="0 0 816 336.4">
  <!-- Generator: Adobe Illustrator 29.0.0, SVG Export Plug-In . SVG Version: 2.1.0 Build 186)  -->
  <defs>
    <style>
      .st0 {
        fill: #053856;
      }
    </style>
  </defs>
  <g>
    <polygon class="st0" points="191.5 136.7 191.5 201.1 211.2 201.1 211.2 127.8 191.5 136.7"/>
    <polygon class="st0" points="211.2 104.4 211.2 120.9 191.5 129.8 191.5 113.2 211.2 104.4"/>
    <polygon class="st0" points="309.6 113.2 309.6 129.8 329.3 120.9 329.3 104.4 309.6 113.2"/>
    <g>
      <path class="st0" d="M286.9,137.6c5.2,5.2,7.8,13,7.8,23.3v40.3h-19.7v-37.1c0-5.6-1.2-9.7-3.5-12.5-2.4-2.7-5.8-4.1-10.2-4.1s-8.9,1.6-11.9,4.8c-2.9,3.2-4.4,7.9-4.4,14.2v34.8h-19.7v-64.9l18.8-8.4v11.2c2.6-3,5.8-5.3,9.7-6.9,3.9-1.6,8.1-2.4,12.7-2.4,8.4,0,15.2,2.6,20.4,7.8"/>
      <path class="st0" d="M329.3,127.8v74c0,8.2-2.3,14.7-6.7,19.4-4.5,4.8-10.8,7.1-18.9,7.1s-12.1-1.3-15.8-3.9l5.3-14.8c2.3,1.7,5,2.5,8.3,2.5s4.5-.8,5.9-2.5c1.4-1.7,2.1-4.2,2.1-7.7v-65.2l19.7-9Z"/>
      <path class="st0" d="M390,180.1c3.3-3.5,4.9-8.3,4.9-14.2s-1.6-10.7-4.9-14.2c-3.3-3.5-7.4-5.3-12.4-5.3s-9.2,1.8-12.5,5.3c-3.3,3.5-4.9,8.3-4.9,14.2s1.6,10.7,4.9,14.2c3.3,3.5,7.4,5.3,12.5,5.3s9.1-1.8,12.4-5.3M414.2,136.6v64.5h-18.8v-8.1c-4.9,6.1-11.9,9.2-21.2,9.2s-12.2-1.5-17.3-4.4c-5.2-3-9.2-7.2-12.2-12.7-2.9-5.5-4.4-11.9-4.4-19.1s1.5-13.6,4.4-19.1c2.9-5.5,7-9.7,12.2-12.7,5.2-3,10.9-4.5,17.3-4.5s15.4,2.8,20.3,8.5v-10.4l19.7,8.9h0Z"/>
      <path class="st0" d="M679.6,190.9c-6.4,7.6-15.7,11.3-27.9,11.3s-14.4-1.6-20.3-4.7c-5.9-3.1-10.4-7.4-13.6-12.9-3.2-5.5-4.8-11.7-4.8-18.7s1.6-13.1,4.7-18.6c3.2-5.5,7.5-9.9,13-12.9,5.5-3.1,11.7-4.7,18.5-4.7s12.7,1.5,18,4.4c5.4,3,9.6,7.2,12.7,12.7,3.1,5.6,4.6,12,4.6,19.3s-.1,2.1-.4,5.5h-51.3c.9,4.4,3.1,7.8,6.6,10.4,3.4,2.5,7.7,3.8,12.9,3.8s6.7-.5,9.4-1.6c.7-.3,1.3-.6,1.9-.9l16.1,7.6h0ZM638,149.1c-3,2.6-4.9,6.2-5.5,10.7h33.4c-.7-4.4-2.5-8-5.6-10.7-3-2.7-6.7-4-11.1-4s-8.2,1.3-11.2,3.9"/>
      <path class="st0" d="M487.7,180.9c4.2-2.5,7.5-5.9,9.9-10.4,2.4-4.4,3.6-9.5,3.6-15.2s-1.2-10.7-3.6-15.2c-2.4-4.4-5.7-7.9-9.9-10.4-4.2-2.5-8.9-3.7-14.1-3.7s-9.9,1.2-14.1,3.7c-4.2,2.5-7.5,6-9.9,10.4-2.4,4.4-3.6,9.5-3.6,15.2s1.2,10.7,3.6,15.2c2.4,4.4,5.7,7.9,9.9,10.4,4.2,2.5,8.9,3.7,14.1,3.7s9.9-1.2,14.1-3.7M448.8,196.5c-7.4-4.1-13.1-9.7-17.3-16.9-4.2-7.2-6.2-15.3-6.2-24.3s2.1-17.1,6.2-24.3c4.2-7.2,9.9-12.8,17.3-16.9,7.4-4.1,15.6-6.1,24.8-6.1s17.4,2,24.7,6.1c7.3,4.1,13.1,9.7,17.3,16.9,4.2,7.2,6.3,15.3,6.3,24.3s-2.1,17.1-6.3,24.3c-4.2,7.2-10,12.8-17.3,16.9-7.3,4.1-15.6,6.2-24.7,6.2s-17.4-2-24.8-6.2"/>
      <path class="st0" d="M594.4,137.6c5.2,5.2,7.8,13,7.8,23.3v40.3h-19.7v-37.1c0-5.6-1.2-9.7-3.5-12.5-2.4-2.7-5.8-4.1-10.2-4.1s-8.9,1.6-11.9,4.8c-2.9,3.2-4.4,7.9-4.4,14.2v34.8h-19.7v-64.9l18.8-8.4v11.2c2.6-3,5.8-5.3,9.7-6.9,3.9-1.6,8.1-2.4,12.7-2.4,8.4,0,15.2,2.6,20.4,7.8"/>
      <path class="st0" d="M169.6,137.6c5.2,5.2,7.8,13,7.8,23.3v40.3h-19.7v-37.1c0-5.6-1.2-9.7-3.5-12.5-2.4-2.7-5.8-4.1-10.2-4.1s-8.9,1.6-11.9,4.8c-2.9,3.2-4.4,7.9-4.4,14.2v34.8h-19.7v-64.9l18.8-8.4v11.2c2.6-3,5.8-5.3,9.7-6.9,3.9-1.6,8.1-2.4,12.7-2.4,8.4,0,15.2,2.6,20.4,7.8"/>
    </g>
  </g>
  <g>
    <path class="st0" d="M700.1,192c.3-.1.7-.3,1-.5.8-.7,1.2-1.6,1.2-2.8s-.4-2.1-1.2-2.7c-.8-.7-1.9-1-3.3-1h-4.5v10.8h2.4v-3.3h2.2l2.1,3.3h2.5l-2.4-3.8ZM699.4,190.1c-.4.3-1,.5-1.8.5h-2v-3.8h2c.8,0,1.4.2,1.8.5.4.3.6.8.6,1.4s-.2,1.1-.6,1.4Z"/>
    <path class="st0" d="M705.7,190.5c0,4.6-3.8,8.4-8.4,8.4s-8.4-3.8-8.4-8.4,3.8-8.4,8.4-8.4,8.4,3.8,8.4,8.4ZM697.3,179.8c-5.9,0-10.7,4.8-10.7,10.7s4.8,10.7,10.7,10.7,10.7-4.8,10.7-10.7-4.8-10.7-10.7-10.7Z"/>
  </g>
</svg>